REM DIRINDEX 1\2,1\3
REM DIRNAME cjc143,folder01,folder02
TITLE ""
FILE "2000 phrasesTrack51.mp3" MP3
  TRACK 01 AUDIO
    TITLE "2:cjc143_2018"
    INDEX 01 00:00:00
  TRACK 02 AUDIO
    TITLE "0:"
    INDEX 01 00:00:62
  TRACK 03 AUDIO
    TITLE "2:cjc143_2019"
    INDEX 01 00:01:28
  TRACK 04 AUDIO
    TITLE "0:"
    INDEX 01 00:03:31
  TRACK 05 AUDIO
    TITLE "2:cjc143_2020"
    INDEX 01 00:04:01
  TRACK 06 AUDIO
    TITLE "0:"
    INDEX 01 00:06:08
  TRACK 07 AUDIO
    TITLE "2:cjc143_2021"
    INDEX 01 00:06:55
  TRACK 08 AUDIO
    TITLE "0:"
    INDEX 01 00:09:00
  TRACK 09 AUDIO
    TITLE "2:cjc143_2022"
    INDEX 01 00:09:49
  TRACK 10 AUDIO
    TITLE "0:"
    INDEX 01 00:12:26
  TRACK 11 AUDIO
    TITLE "2:cjc143_2023"
    INDEX 01 00:12:71
  TRACK 12 AUDIO
    TITLE "0:"
    INDEX 01 00:14:37
  TRACK 13 AUDIO
    TITLE "2:cjc143_2024"
    INDEX 01 00:15:13
  TRACK 14 AUDIO
    TITLE "0:"
    INDEX 01 00:16:59
  TRACK 15 AUDIO
    TITLE "2:cjc143_2025"
    INDEX 01 00:17:39
  TRACK 16 AUDIO
    TITLE "0:"
    INDEX 01 00:19:22
  TRACK 17 AUDIO
    TITLE "2:cjc143_2026"
    INDEX 01 00:19:67
  TRACK 18 AUDIO
    TITLE "0:"
    INDEX 01 00:21:27
  TRACK 19 AUDIO
    TITLE "2:cjc143_2027"
    INDEX 01 00:22:03
  TRACK 20 AUDIO
    TITLE "0:"
    INDEX 01 00:23:42
  TRACK 21 AUDIO
    TITLE "2:cjc143_2028"
    INDEX 01 00:24:12
  TRACK 22 AUDIO
    TITLE "0:"
    INDEX 01 00:25:39
  TRACK 23 AUDIO
    TITLE "2:cjc143_2029"
    INDEX 01 00:26:15
  TRACK 24 AUDIO
    TITLE "0:"
    INDEX 01 00:27:51
  TRACK 25 AUDIO
    TITLE "2:cjc143_2030"
    INDEX 01 00:28:31
  TRACK 26 AUDIO
    TITLE "0:"
    INDEX 01 00:30:30
  TRACK 27 AUDIO
    TITLE "2:cjc143_2031"
    INDEX 01 00:31:00
  TRACK 28 AUDIO
    TITLE "0:"
    INDEX 01 00:32:74
  TRACK 29 AUDIO
    TITLE "2:cjc143_2032"
    INDEX 01 00:33:44
  TRACK 30 AUDIO
    TITLE "0:"
    INDEX 01 00:35:19
  TRACK 31 AUDIO
    TITLE "2:cjc143_2033"
    INDEX 01 00:35:63
  TRACK 32 AUDIO
    TITLE "0:"
    INDEX 01 00:37:38
  TRACK 33 AUDIO
    TITLE "2:cjc143_2034"
    INDEX 01 00:38:08
  TRACK 34 AUDIO
    TITLE "0:"
    INDEX 01 00:40:01
  TRACK 35 AUDIO
    TITLE "2:cjc143_2035"
    INDEX 01 00:40:50
  TRACK 36 AUDIO
    TITLE "0:"
    INDEX 01 00:42:10
  TRACK 37 AUDIO
    TITLE "2:cjc143_2036"
    INDEX 01 00:42:53
  TRACK 38 AUDIO
    TITLE "0:"
    INDEX 01 00:44:11
  TRACK 39 AUDIO
    TITLE "2:cjc143_2037"
    INDEX 01 00:44:61
  TRACK 40 AUDIO
    TITLE "0:"
    INDEX 01 00:46:11
  TRACK 41 AUDIO
    TITLE "2:cjc143_2038"
    INDEX 01 00:46:54
  TRACK 42 AUDIO
    TITLE "0:"
    INDEX 01 00:48:20
  TRACK 43 AUDIO
    TITLE "2:cjc143_2039"
    INDEX 01 00:48:71
  TRACK 44 AUDIO
    TITLE "0:"
    INDEX 01 00:50:46
  TRACK 45 AUDIO
    TITLE "2:cjc143_2040"
    INDEX 01 00:51:32
  TRACK 46 AUDIO
    TITLE "0:"
    INDEX 01 00:52:49
  TRACK 47 AUDIO
    TITLE "2:cjc143_2041"
    INDEX 01 00:53:19
  TRACK 48 AUDIO
    TITLE "0:"
    INDEX 01 00:54:38
  TRACK 49 AUDIO
    TITLE "2:cjc143_2042"
    INDEX 01 00:55:14
  TRACK 50 AUDIO
    TITLE "0:"
    INDEX 01 00:57:05
  TRACK 51 AUDIO
    TITLE "2:cjc143_2043"
    INDEX 01 00:57:50
  TRACK 52 AUDIO
    TITLE "0:"
    INDEX 01 00:59:36
  TRACK 53 AUDIO
    TITLE "2:cjc143_2044"
    INDEX 01 01:00:08
  TRACK 54 AUDIO
    TITLE "0:"
    INDEX 01 01:01:27
  TRACK 55 AUDIO
    TITLE "2:cjc143_2045"
    INDEX 01 01:01:72
  TRACK 56 AUDIO
    TITLE "0:"
    INDEX 01 01:03:57
  TRACK 57 AUDIO
    TITLE "2:cjc143_2046"
    INDEX 01 01:04:27
  TRACK 58 AUDIO
    TITLE "0:"
    INDEX 01 01:06:10
  TRACK 59 AUDIO
    TITLE "2:cjc143_2047"
    INDEX 01 01:06:55
  TRACK 60 AUDIO
    TITLE "0:"
    INDEX 01 01:08:70
  TRACK 61 AUDIO
    TITLE "2:cjc143_2048"
    INDEX 01 01:09:40
  TRACK 62 AUDIO
    TITLE "0:"
    INDEX 01 01:11:68
  TRACK 63 AUDIO
    TITLE "2:cjc143_2049"
    INDEX 01 01:12:38
  TRACK 64 AUDIO
    TITLE "0:"
    INDEX 01 01:14:70
  TRACK 65 AUDIO
    TITLE "2:cjc143_2050"
    INDEX 01 01:15:40
  TRACK 66 AUDIO
    TITLE "0:"
    INDEX 01 01:17:55
  TRACK 67 AUDIO
    TITLE "2:cjc143_2051"
    INDEX 01 01:18:29
  TRACK 68 AUDIO
    TITLE "0:"
    INDEX 01 01:20:14
  TRACK 69 AUDIO
    TITLE "2:cjc143_2052"
    INDEX 01 01:20:63
  TRACK 70 AUDIO
    TITLE "0:"
    INDEX 01 01:22:42
  TRACK 71 AUDIO
    TITLE "2:cjc143_2053"
    INDEX 01 01:23:11
  TRACK 72 AUDIO
    TITLE "0:"
    INDEX 01 01:25:17
  TRACK 73 AUDIO
    TITLE "2:cjc143_2054"
    INDEX 01 01:25:62
  TRACK 74 AUDIO
    TITLE "0:"
    INDEX 01 01:28:00
  TRACK 75 AUDIO
    TITLE "2:cjc143_2055"
    INDEX 01 01:28:49
  TRACK 76 AUDIO
    TITLE "0:"
    INDEX 01 01:30:56
  TRACK 77 AUDIO
    TITLE "2:cjc143_2056"
    INDEX 01 01:31:26
  TRACK 78 AUDIO
    TITLE "0:"
    INDEX 01 01:33:09
  TRACK 79 AUDIO
    TITLE "2:cjc143_2057"
    INDEX 01 01:33:64
  TRACK 80 AUDIO
    TITLE "0:"
    INDEX 01 01:35:49
  TRACK 81 AUDIO
    TITLE "2:cjc143_2058"
    INDEX 01 01:36:29
  TRACK 82 AUDIO
    TITLE "0:"
    INDEX 01 01:38:20
  TRACK 83 AUDIO
    TITLE "2:cjc143_2059"
    INDEX 01 01:38:71
  TRACK 84 AUDIO
    TITLE "0:"
    INDEX 01 01:41:44
